<svg xmlns="http://www.w3.org/2000/svg" width="96" height="96" viewBox="0 0 96 96" fill="none" role="img" aria-label="pyMC">
  <defs>
    <linearGradient id="bg" x1="10" y1="10" x2="86" y2="86" gradientUnits="userSpaceOnUse">
      <stop stop-color="#0D74DA"/>
      <stop offset="1" stop-color="#0354A6"/>
    </linearGradient>
  </defs>
  <rect x="6" y="6" width="84" height="84" rx="20" fill="url(#bg)"/>
  <path d="M25 66V29H42.5C50.8 29 56.4 33.7 56.4 41.3C56.4 48.8 50.8 53.5 42.5 53.5H34.2V66H25ZM34.2 46.2H41.1C44.5 46.2 47 44.4 47 41.3C47 38.1 44.5 36.4 41.1 36.4H34.2V46.2Z" fill="#F7FBFF"/>
  <path d="M59.4 66V29H68.7L80 48.2V29H88V66H79.4L67.5 45.7V66H59.4Z" fill="#F7FBFF"/>
</svg>
